<svg id="svg" version="1.1" xmlns="http://www.w3.org/2000/svg" xmlns:xlink="http://www.w3.org/1999/xlink" width="50" height="50" viewBox="0, 0, 400,400"><g id="svgg"><path id="path0" d="M112.757 39.342 C 104.809 42.611,103.886 45.028,103.683 63.087 L 103.529 76.775 74.664 76.887 L 45.800 77.000 44.200 77.983 C 40.480 80.270,40.000 81.665,40.000 90.200 C 40.000 99.811,41.190 102.084,46.886 103.349 L 48.985 103.815 49.463 106.608 C 49.726 108.143,50.127 110.840,50.354 112.600 C 50.581 114.360,50.966 117.330,51.208 119.200 C 51.451 121.070,51.818 123.905,52.025 125.500 C 52.231 127.095,52.588 129.795,52.817 131.500 C 53.047 133.205,53.407 135.905,53.617 137.500 C 53.828 139.095,54.174 141.705,54.387 143.300 C 54.600 144.895,54.971 147.730,55.210 149.600 C 55.449 151.470,55.807 154.170,56.004 155.600 C 56.201 157.030,56.555 159.730,56.790 161.600 C 58.411 174.484,58.846 176.309,61.130 179.843 C 63.681 183.791,67.603 186.628,72.200 187.853 C 75.555 188.748,155.694 189.103,160.800 188.246 C 167.604 187.105,172.546 183.677,175.107 178.324 C 176.792 174.801,177.094 173.561,178.013 166.400 C 178.667 161.306,179.181 157.356,179.588 154.300 C 180.238 149.414,180.768 145.440,181.189 142.300 C 181.402 140.705,181.762 137.960,181.988 136.200 C 182.213 134.440,182.567 131.740,182.773 130.200 C 183.215 126.905,183.839 121.946,184.410 117.200 C 184.635 115.330,184.991 112.540,185.200 111.000 C 185.410 109.460,185.701 107.255,185.846 106.101 C 186.105 104.044,186.144 103.993,187.755 103.577 C 190.629 102.835,190.962 102.704,192.086 101.873 C 192.691 101.426,193.685 100.326,194.293 99.430 L 195.400 97.800 195.400 90.200 L 195.400 82.600 194.293 80.970 C 193.099 79.212,191.590 77.949,190.000 77.377 C 189.450 77.180,176.130 76.924,160.400 76.809 L 131.800 76.600 131.578 62.800 C 131.415 52.632,131.215 48.632,130.817 47.600 C 127.994 40.274,119.705 36.484,112.757 39.342 M281.369 57.604 C 277.230 59.662,276.868 64.980,280.668 67.879 L 282.138 69.000 326.569 69.000 C 369.169 69.000,371.045 68.969,372.093 68.259 C 375.745 65.781,375.855 60.463,372.306 57.932 L 371.000 57.000 327.000 56.897 C 283.500 56.794,282.981 56.802,281.369 57.604 M282.274 85.780 C 277.205 87.587,276.397 94.059,280.896 96.802 C 282.616 97.851,369.523 98.077,371.520 97.038 C 376.691 94.347,375.877 87.071,370.245 85.653 C 367.385 84.933,284.313 85.052,282.274 85.780 M183.600 246.047 C 180.190 246.183,137.468 246.318,88.663 246.347 L -0.074 246.400 0.063 254.415 C 0.169 260.636,0.322 262.505,0.745 262.766 C 1.206 263.051,1.206 263.137,0.745 263.320 C 0.358 263.474,0.345 263.546,0.700 263.568 C 0.975 263.586,1.200 263.960,1.200 264.400 C 1.200 264.840,1.380 265.200,1.600 265.200 C 1.820 265.200,2.000 265.560,2.000 266.000 C 2.000 266.440,2.180 266.800,2.400 266.800 C 2.620 266.800,2.800 267.160,2.800 267.600 C 2.800 268.040,2.980 268.400,3.200 268.400 C 3.420 268.400,3.600 268.771,3.600 269.224 C 3.600 269.677,3.780 269.936,4.000 269.800 C 4.220 269.664,4.400 269.833,4.400 270.176 C 4.400 270.519,4.580 270.800,4.800 270.800 C 5.020 270.800,5.200 271.083,5.200 271.429 C 5.200 272.174,6.197 273.269,6.552 272.914 C 6.689 272.778,6.800 272.878,6.800 273.136 C 6.800 273.681,11.492 278.400,12.035 278.400 C 12.236 278.400,12.400 278.580,12.400 278.800 C 12.400 279.020,12.630 279.200,12.912 279.200 C 13.193 279.200,13.683 279.560,14.000 280.000 C 14.317 280.440,14.897 280.800,15.288 280.800 C 15.680 280.800,16.000 280.980,16.000 281.200 C 16.000 281.420,16.360 281.600,16.800 281.600 C 17.240 281.600,17.600 281.780,17.600 282.000 C 17.600 282.220,17.960 282.400,18.400 282.400 C 18.840 282.400,19.200 282.580,19.200 282.800 C 19.200 283.020,19.560 283.200,20.000 283.200 C 20.440 283.200,20.800 283.380,20.800 283.600 C 20.800 283.820,21.340 284.000,22.000 284.000 C 22.660 284.000,23.200 284.180,23.200 284.400 C 23.200 284.620,23.740 284.800,24.400 284.800 C 25.060 284.800,25.600 284.980,25.600 285.200 C 25.600 285.431,26.859 285.600,28.576 285.600 C 30.213 285.600,31.664 285.780,31.800 286.000 C 31.963 286.263,48.537 286.400,80.224 286.400 C 128.133 286.400,128.400 286.404,128.400 287.200 C 128.400 287.640,128.220 288.000,128.000 288.000 C 127.780 288.000,127.600 288.720,127.600 289.600 C 127.600 290.480,127.420 291.200,127.200 291.200 C 126.980 291.200,126.800 291.732,126.800 292.381 C 126.800 293.031,126.638 293.976,126.439 294.481 C 125.775 296.171,124.800 301.096,124.800 302.757 C 124.800 303.661,124.620 304.400,124.400 304.400 C 124.180 304.400,124.000 305.120,124.000 306.000 C 124.000 306.880,123.820 307.600,123.600 307.600 C 123.380 307.600,123.200 308.230,123.200 309.000 C 123.200 309.770,123.020 310.400,122.800 310.400 C 122.580 310.400,122.400 311.120,122.400 312.000 C 122.400 312.880,122.220 313.600,122.000 313.600 C 121.780 313.600,121.600 314.309,121.600 315.176 C 121.600 316.043,121.420 316.864,121.200 317.000 C 120.980 317.136,120.800 318.047,120.800 319.024 C 120.800 320.001,120.620 320.800,120.400 320.800 C 120.180 320.800,120.000 321.520,120.000 322.400 C 120.000 323.280,119.820 324.000,119.600 324.000 C 119.380 324.000,119.200 324.619,119.200 325.376 C 119.200 326.133,119.020 326.864,118.800 327.000 C 118.580 327.136,118.400 327.789,118.400 328.452 C 118.400 330.804,118.422 330.800,105.029 330.800 C 97.143 330.800,92.800 330.942,92.800 331.200 C 92.800 331.420,91.900 331.600,90.800 331.600 C 89.700 331.600,88.800 331.780,88.800 332.000 C 88.800 332.220,88.260 332.400,87.600 332.400 C 86.940 332.400,86.400 332.580,86.400 332.800 C 86.400 333.020,86.040 333.200,85.600 333.200 C 85.160 333.200,84.800 333.380,84.800 333.600 C 84.800 333.820,84.440 334.000,84.000 334.000 C 83.560 334.000,83.200 334.180,83.200 334.400 C 83.200 334.620,82.916 334.800,82.569 334.800 C 82.221 334.800,81.246 335.520,80.400 336.400 C 79.554 337.280,78.673 338.000,78.441 338.000 C 78.208 338.000,77.701 338.495,77.313 339.100 C 76.925 339.705,76.201 340.648,75.704 341.196 C 75.207 341.744,74.800 342.419,74.800 342.696 C 74.800 342.973,74.620 343.200,74.400 343.200 C 74.180 343.200,74.000 343.590,74.000 344.067 C 74.000 344.543,73.883 344.816,73.739 344.673 C 73.403 344.336,72.400 346.263,72.400 347.246 C 72.400 347.661,72.220 348.000,72.000 348.000 C 71.780 348.000,71.600 348.540,71.600 349.200 C 71.600 349.860,71.420 350.400,71.200 350.400 C 70.971 350.400,70.800 351.600,70.800 353.200 C 70.800 354.800,70.629 356.000,70.400 356.000 C 70.149 356.000,70.000 358.467,70.000 362.602 L 70.000 369.205 103.671 369.102 L 137.342 369.000 137.655 367.833 C 137.826 367.191,138.153 364.761,138.380 362.433 C 138.607 360.105,138.969 356.580,139.186 354.600 C 139.402 352.620,139.759 349.290,139.980 347.200 C 140.200 345.110,141.199 335.750,142.200 326.400 C 143.201 317.050,144.195 307.735,144.410 305.700 C 144.624 303.665,144.991 300.245,145.224 298.100 C 145.457 295.955,145.808 292.670,146.004 290.800 C 146.663 284.496,147.238 279.020,147.622 275.400 C 147.831 273.420,148.104 270.630,148.227 269.200 C 148.350 267.770,148.533 266.197,148.632 265.704 L 148.813 264.808 168.307 264.704 L 187.800 264.600 188.091 263.200 C 188.412 261.658,190.053 245.879,189.897 245.830 C 189.844 245.814,187.010 245.911,183.600 246.047 M363.341 248.900 C 363.482 250.275,363.769 253.020,363.978 255.000 C 365.284 267.339,365.606 270.445,366.401 278.400 C 366.632 280.710,366.958 283.230,367.126 284.000 L 367.430 285.400 370.115 285.518 C 371.792 285.592,372.800 285.480,372.800 285.218 C 372.800 284.988,373.239 284.800,373.776 284.800 C 374.313 284.800,374.864 284.620,375.000 284.400 C 375.136 284.180,375.777 284.000,376.424 284.000 C 377.071 284.000,377.600 283.820,377.600 283.600 C 377.600 283.380,377.960 283.200,378.400 283.200 C 378.840 283.200,379.200 283.020,379.200 282.800 C 379.200 282.580,379.560 282.400,380.000 282.400 C 380.440 282.400,380.800 282.220,380.800 282.000 C 380.800 281.780,381.160 281.600,381.600 281.600 C 382.040 281.600,382.400 281.420,382.400 281.200 C 382.400 280.980,382.720 280.800,383.112 280.800 C 383.503 280.800,384.076 280.450,384.385 280.021 C 384.693 279.593,385.093 279.334,385.273 279.445 C 385.453 279.556,385.600 279.427,385.600 279.157 C 385.600 278.887,385.712 278.779,385.849 278.915 C 385.985 279.052,386.781 278.452,387.617 277.582 C 388.453 276.712,389.361 276.000,389.635 276.000 C 389.909 276.000,390.028 275.895,389.900 275.767 C 389.772 275.638,390.378 274.822,391.248 273.952 C 392.118 273.082,392.742 272.230,392.636 272.058 C 392.530 271.886,392.793 271.493,393.221 271.185 C 393.650 270.876,394.000 270.383,394.000 270.088 C 394.000 269.794,394.180 269.664,394.400 269.800 C 394.620 269.936,394.800 269.677,394.800 269.224 C 394.800 268.771,394.980 268.400,395.200 268.400 C 395.420 268.400,395.600 268.040,395.600 267.600 C 395.600 267.160,395.780 266.800,396.000 266.800 C 396.220 266.800,396.400 266.440,396.400 266.000 C 396.400 265.560,396.580 265.200,396.800 265.200 C 397.020 265.200,397.203 264.615,397.206 263.900 C 397.211 262.914,397.306 262.745,397.600 263.200 C 397.884 263.639,397.989 263.345,397.994 262.100 C 397.997 261.165,398.180 260.400,398.400 260.400 C 398.620 260.400,398.800 259.871,398.800 259.224 C 398.800 258.577,398.980 257.936,399.200 257.800 C 399.436 257.654,399.600 255.263,399.600 251.976 L 399.600 246.400 381.342 246.400 L 363.084 246.400 363.341 248.900 M175.501 284.821 C 173.142 286.766,173.096 287.195,173.310 305.426 L 173.502 321.800 174.651 325.200 C 181.284 344.829,202.719 353.673,220.726 344.211 C 228.264 340.250,234.034 333.078,236.825 324.200 C 237.747 321.268,238.525 293.294,237.816 288.567 C 236.961 282.869,229.089 281.639,226.502 286.800 C 225.880 288.041,225.775 290.019,225.584 304.200 C 225.342 322.136,225.323 322.269,222.243 326.908 C 220.867 328.981,216.962 332.800,216.219 332.800 C 216.056 332.800,215.446 333.129,214.862 333.532 C 208.460 337.943,196.702 335.875,190.798 329.299 C 185.808 323.742,185.504 322.316,185.228 303.200 C 185.060 291.561,184.867 287.167,184.495 286.516 C 182.720 283.414,178.234 282.568,175.501 284.821 " stroke="none" fill="#315f78" fill-rule="evenodd"></path><path id="path1" d="M227.857 57.959 C 224.529 60.153,224.140 64.322,227.007 67.069 L 228.814 68.800 243.827 68.800 C 260.384 68.800,260.408 68.797,261.918 66.310 C 263.746 63.300,263.015 59.652,260.245 57.962 C 258.333 56.796,229.625 56.794,227.857 57.959 M229.268 85.875 C 224.343 86.872,223.801 94.678,228.508 96.814 C 230.750 97.832,256.902 98.018,259.259 97.033 C 263.376 95.313,264.222 90.324,260.937 87.139 L 259.557 85.800 244.878 85.743 C 236.805 85.712,229.781 85.772,229.268 85.875 M194.643 200.633 C 194.509 200.981,194.400 201.963,194.400 202.816 C 194.400 203.669,194.228 205.680,194.018 207.284 C 193.808 208.888,193.442 212.180,193.203 214.600 C 192.965 217.020,192.600 220.530,192.393 222.400 C 192.185 224.270,191.202 233.900,190.208 243.800 C 189.214 253.700,188.245 262.475,188.056 263.300 L 187.711 264.800 224.996 264.800 L 262.282 264.800 262.763 269.100 C 263.513 275.798,263.912 279.452,264.392 284.000 C 264.635 286.310,265.002 289.730,265.207 291.600 C 265.411 293.470,265.768 296.800,266.000 299.000 C 266.232 301.200,266.587 304.530,266.790 306.400 C 267.436 312.360,268.349 320.921,269.211 329.100 C 269.437 331.245,269.787 334.530,269.989 336.400 C 270.191 338.270,270.546 341.555,270.778 343.700 C 271.010 345.845,271.378 349.265,271.596 351.300 C 271.813 353.335,272.165 356.620,272.377 358.600 C 272.590 360.580,272.953 364.000,273.184 366.200 C 273.415 368.400,273.862 372.630,274.178 375.600 C 274.493 378.570,275.129 384.690,275.591 389.200 C 276.054 393.710,276.523 397.985,276.634 398.700 L 276.836 400.000 328.418 400.000 C 374.002 400.000,380.000 399.930,380.000 399.400 C 380.000 399.070,379.820 398.800,379.600 398.800 C 379.361 398.800,379.200 397.267,379.200 395.000 C 379.200 392.733,379.039 391.200,378.800 391.200 C 378.563 391.200,378.400 389.733,378.400 387.600 C 378.400 385.467,378.237 384.000,378.000 384.000 C 377.761 384.000,377.600 382.467,377.600 380.200 C 377.600 377.933,377.439 376.400,377.200 376.400 C 376.963 376.400,376.800 374.933,376.800 372.800 C 376.800 370.667,376.637 369.200,376.400 369.200 C 376.160 369.200,376.000 367.600,376.000 365.200 C 376.000 362.800,375.840 361.200,375.600 361.200 C 375.369 361.200,375.192 359.887,375.181 358.100 C 375.170 356.395,374.982 353.200,374.762 351.000 C 374.543 348.800,374.188 345.200,373.973 343.000 C 373.759 340.800,373.400 337.290,373.177 335.200 C 372.953 333.110,372.674 329.735,372.558 327.700 C 372.441 325.665,372.190 324.000,372.000 324.000 C 371.810 324.000,371.554 322.335,371.431 320.300 C 371.308 318.265,371.103 314.935,370.975 312.900 C 370.848 310.865,370.576 309.200,370.372 309.200 C 370.167 309.200,370.000 307.400,370.000 305.200 C 370.000 302.800,369.840 301.200,369.600 301.200 C 369.363 301.200,369.200 299.741,369.200 297.624 C 369.200 295.657,369.020 293.936,368.800 293.800 C 368.580 293.664,368.400 291.943,368.400 289.976 C 368.400 288.009,368.235 286.400,368.033 286.400 C 367.527 286.400,366.832 282.971,366.370 278.200 C 365.936 273.723,365.392 268.378,364.822 263.000 C 364.612 261.020,364.254 257.600,364.026 255.400 C 363.798 253.200,363.420 249.960,363.187 248.200 C 362.954 246.440,362.602 243.470,362.406 241.600 C 362.210 239.730,361.849 236.310,361.604 234.000 C 361.360 231.690,360.988 228.180,360.778 226.200 C 360.569 224.220,360.219 220.800,360.000 218.600 C 359.781 216.400,359.421 212.890,359.200 210.800 C 358.979 208.710,358.696 205.830,358.573 204.400 C 358.450 202.970,358.267 201.395,358.167 200.900 L 357.985 200.000 342.392 200.000 L 326.800 200.000 326.800 210.465 C 326.800 223.550,325.960 225.600,320.600 225.600 C 315.299 225.600,314.642 224.053,314.400 211.000 L 314.200 200.200 276.534 200.098 L 238.868 199.996 238.734 210.730 L 238.600 221.464 237.447 222.974 C 234.787 226.460,230.013 226.460,227.353 222.974 L 226.200 221.463 226.062 210.732 L 225.923 200.000 210.404 200.000 C 196.622 200.000,194.858 200.071,194.643 200.633 " stroke="none" fill="#fb4c1c" fill-rule="evenodd"></path><path id="path2" d="M26.200 0.800 C 26.064 1.020,25.513 1.200,24.976 1.200 C 24.439 1.200,24.000 1.342,24.000 1.515 C 24.000 1.688,23.418 1.874,22.707 1.928 C 21.995 1.983,21.239 2.201,21.027 2.413 C 20.814 2.626,20.316 2.800,19.920 2.800 C 19.524 2.800,19.200 2.980,19.200 3.200 C 19.200 3.420,18.840 3.600,18.400 3.600 C 17.960 3.600,17.600 3.780,17.600 4.000 C 17.600 4.220,17.240 4.400,16.800 4.400 C 16.360 4.400,16.000 4.580,16.000 4.800 C 16.000 5.020,15.717 5.200,15.371 5.200 C 15.026 5.200,14.514 5.425,14.235 5.700 C 13.955 5.975,13.113 6.650,12.363 7.200 C 10.401 8.639,5.200 13.968,5.200 14.540 C 5.200 14.806,4.840 15.283,4.400 15.600 C 3.960 15.917,3.600 16.497,3.600 16.888 C 3.600 17.280,3.420 17.600,3.200 17.600 C 2.980 17.600,2.800 17.960,2.800 18.400 C 2.800 18.840,2.620 19.200,2.400 19.200 C 2.180 19.200,2.000 19.560,2.000 20.000 C 2.000 20.440,1.820 20.800,1.600 20.800 C 1.380 20.800,1.200 21.124,1.200 21.520 C 1.200 21.916,0.975 22.465,0.700 22.740 C 0.303 23.137,0.178 46.206,0.095 134.841 L -0.010 246.441 94.575 246.321 C 156.944 246.241,189.294 246.064,189.552 245.800 C 189.767 245.580,190.136 243.420,190.372 241.000 C 190.608 238.580,190.981 234.890,191.202 232.800 C 191.423 230.710,191.787 227.200,192.011 225.000 C 192.235 222.800,192.590 219.380,192.800 217.400 C 193.659 209.287,194.082 205.265,194.334 202.800 L 194.600 200.200 210.500 200.095 L 226.400 199.991 226.400 187.069 C 226.400 179.962,226.584 173.079,226.808 171.773 C 229.478 156.245,237.370 144.416,250.600 136.111 C 252.906 134.664,258.557 132.000,259.322 132.000 C 259.607 132.000,260.011 131.843,260.220 131.651 C 260.776 131.140,266.862 129.717,270.865 129.162 C 289.179 126.622,310.463 137.174,319.554 153.300 C 320.019 154.125,320.726 155.385,321.125 156.100 C 325.531 163.998,326.947 172.511,326.730 189.800 L 326.600 200.200 342.500 200.091 C 355.157 200.004,358.401 200.086,358.405 200.491 C 358.408 200.771,358.768 204.420,359.206 208.600 C 360.634 222.246,362.019 235.720,362.413 239.794 C 362.625 241.991,362.909 244.376,363.044 245.094 L 363.289 246.400 381.445 246.400 L 399.600 246.400 399.600 137.200 C 399.600 64.667,399.466 28.000,399.200 28.000 C 398.980 28.000,398.800 27.608,398.800 27.128 C 398.800 26.208,398.140 23.872,397.551 22.705 C 397.358 22.323,397.200 21.738,397.200 21.405 C 397.200 21.072,397.020 20.800,396.800 20.800 C 396.580 20.800,396.400 20.440,396.400 20.000 C 396.400 19.560,396.220 19.200,396.000 19.200 C 395.780 19.200,395.600 18.840,395.600 18.400 C 395.600 17.960,395.420 17.600,395.200 17.600 C 394.980 17.600,394.800 17.229,394.800 16.776 C 394.800 16.323,394.620 16.064,394.400 16.200 C 394.180 16.336,394.000 16.066,394.000 15.600 C 394.000 15.134,393.820 14.864,393.600 15.000 C 393.380 15.136,393.200 14.967,393.200 14.624 C 393.200 14.281,393.020 14.000,392.800 14.000 C 392.580 14.000,392.400 13.801,392.400 13.559 C 392.400 12.983,387.017 7.600,386.441 7.600 C 386.199 7.600,386.000 7.420,386.000 7.200 C 386.000 6.980,385.719 6.800,385.376 6.800 C 385.033 6.800,384.864 6.620,385.000 6.400 C 385.136 6.180,384.866 6.000,384.400 6.000 C 383.934 6.000,383.664 5.820,383.800 5.600 C 383.936 5.380,383.677 5.200,383.224 5.200 C 382.771 5.200,382.400 5.020,382.400 4.800 C 382.400 4.580,382.040 4.400,381.600 4.400 C 381.160 4.400,380.800 4.220,380.800 4.000 C 380.800 3.780,380.440 3.600,380.000 3.600 C 379.560 3.600,379.200 3.420,379.200 3.200 C 379.200 2.980,378.928 2.800,378.595 2.800 C 378.262 2.800,377.677 2.638,377.295 2.439 C 376.913 2.240,375.790 1.863,374.800 1.600 C 373.810 1.337,372.687 0.960,372.305 0.761 C 371.308 0.242,26.521 0.281,26.200 0.800 M121.657 38.972 C 124.853 39.942,127.408 41.912,129.474 45.000 C 131.257 47.663,131.348 48.431,131.578 62.800 L 131.800 76.600 160.400 76.809 C 176.130 76.924,189.450 77.180,190.000 77.377 C 191.590 77.949,193.099 79.212,194.293 80.970 L 195.400 82.600 195.400 90.200 L 195.400 97.800 194.293 99.430 C 193.685 100.326,192.691 101.426,192.086 101.873 C 190.962 102.704,190.629 102.835,187.755 103.577 C 186.144 103.993,186.105 104.044,185.846 106.101 C 185.701 107.255,185.410 109.460,185.200 111.000 C 184.991 112.540,184.635 115.330,184.410 117.200 C 183.839 121.946,183.215 126.905,182.773 130.200 C 182.567 131.740,182.213 134.440,181.988 136.200 C 181.762 137.960,181.402 140.705,181.189 142.300 C 180.768 145.440,180.238 149.414,179.588 154.300 C 179.181 157.356,178.667 161.306,178.013 166.400 C 177.094 173.561,176.792 174.801,175.107 178.324 C 172.546 183.677,167.604 187.105,160.800 188.246 C 155.694 189.103,75.555 188.748,72.200 187.853 C 67.603 186.628,63.681 183.791,61.130 179.843 C 58.846 176.309,58.411 174.484,56.790 161.600 C 56.555 159.730,56.201 157.030,56.004 155.600 C 55.807 154.170,55.449 151.470,55.210 149.600 C 54.971 147.730,54.600 144.895,54.387 143.300 C 54.174 141.705,53.828 139.095,53.617 137.500 C 53.407 135.905,53.047 133.205,52.817 131.500 C 52.588 129.795,52.231 127.095,52.025 125.500 C 51.818 123.905,51.451 121.070,51.208 119.200 C 50.966 117.330,50.581 114.360,50.354 112.600 C 50.127 110.840,49.726 108.143,49.463 106.608 L 48.985 103.815 46.886 103.349 C 41.190 102.084,40.000 99.811,40.000 90.200 C 40.000 81.665,40.480 80.270,44.200 77.983 L 45.800 77.000 74.664 76.887 L 103.529 76.775 103.683 63.087 C 103.826 50.322,103.893 49.259,104.675 47.312 C 107.409 40.507,114.782 36.886,121.657 38.972 M259.800 57.600 C 262.933 59.117,264.166 63.262,262.300 66.004 C 260.175 69.126,260.945 69.000,244.008 69.000 L 228.874 69.000 227.337 67.763 C 223.652 64.798,224.318 59.219,228.580 57.363 C 230.836 56.380,257.702 56.584,259.800 57.600 M372.306 57.932 C 375.855 60.463,375.745 65.781,372.093 68.259 C 371.045 68.969,369.169 69.000,326.569 69.000 L 282.138 69.000 280.668 67.879 C 276.868 64.980,277.230 59.662,281.369 57.604 C 282.981 56.802,283.500 56.794,327.000 56.897 L 371.000 57.000 372.306 57.932 M259.999 86.222 C 264.044 88.598,264.280 94.022,260.450 96.624 L 259.014 97.600 244.268 97.600 C 227.555 97.600,227.535 97.597,225.786 94.613 C 223.740 91.121,225.217 87.171,229.096 85.762 C 231.832 84.768,258.191 85.160,259.999 86.222 M370.245 85.653 C 375.877 87.071,376.691 94.347,371.520 97.038 C 369.523 98.077,282.616 97.851,280.896 96.802 C 276.397 94.059,277.205 87.587,282.274 85.780 C 284.313 85.052,367.385 84.933,370.245 85.653 M271.033 141.615 C 259.459 143.440,248.861 150.921,243.287 161.200 C 239.418 168.336,238.400 174.336,238.400 190.012 L 238.400 199.992 276.500 200.096 L 314.600 200.200 314.340 186.600 C 314.070 172.471,314.110 172.823,312.045 166.400 C 310.704 162.226,303.864 151.645,302.471 151.589 C 302.322 151.583,301.300 150.766,300.200 149.774 C 293.491 143.721,280.578 140.109,271.033 141.615 " stroke="none" fill="#c3e3f3" fill-rule="evenodd"></path><path id="path3" d="M236.700 57.099 C 240.715 57.165,247.285 57.165,251.300 57.099 C 255.315 57.034,252.030 56.981,244.000 56.981 C 235.970 56.981,232.685 57.034,236.700 57.099 M224.901 63.000 C 224.905 63.880,224.987 64.193,225.083 63.695 C 225.179 63.198,225.175 62.478,225.075 62.095 C 224.975 61.713,224.896 62.120,224.901 63.000 M237.100 69.099 C 240.895 69.165,247.105 69.165,250.900 69.099 C 254.695 69.034,251.590 68.980,244.000 68.980 C 236.410 68.980,233.305 69.034,237.100 69.099 M237.100 85.499 C 240.895 85.565,247.105 85.565,250.900 85.499 C 254.695 85.434,251.590 85.380,244.000 85.380 C 236.410 85.380,233.305 85.434,237.100 85.499 M226.922 87.029 L 225.800 88.058 227.100 87.154 C 227.815 86.657,228.400 86.193,228.400 86.125 C 228.400 85.809,227.958 86.080,226.922 87.029 M224.909 91.600 C 224.909 92.590,224.987 92.995,225.082 92.500 C 225.178 92.005,225.178 91.195,225.082 90.700 C 224.987 90.205,224.909 90.610,224.909 91.600 M226.173 209.600 C 226.173 214.990,226.230 217.195,226.299 214.500 C 226.368 211.805,226.368 207.395,226.299 204.700 C 226.230 202.005,226.173 204.210,226.173 209.600 M238.573 209.800 C 238.573 215.300,238.630 217.605,238.699 214.923 C 238.768 212.241,238.768 207.741,238.699 204.923 C 238.630 202.105,238.574 204.300,238.573 209.800 M314.399 210.519 L 314.599 221.000 314.707 210.827 C 314.766 205.232,314.676 200.516,314.507 200.346 C 314.338 200.177,314.290 204.755,314.399 210.519 M326.575 210.800 C 326.575 216.630,326.631 219.015,326.699 216.100 C 326.767 213.185,326.767 208.415,326.699 205.500 C 326.631 202.585,326.575 204.970,326.575 210.800 M358.509 204.000 C 358.509 204.990,358.587 205.395,358.682 204.900 C 358.778 204.405,358.778 203.595,358.682 203.100 C 358.587 202.605,358.509 203.010,358.509 204.000 M359.301 211.800 C 359.305 212.680,359.387 212.993,359.483 212.495 C 359.579 211.998,359.575 211.278,359.475 210.895 C 359.375 210.513,359.296 210.920,359.301 211.800 M360.109 219.600 C 360.109 220.590,360.187 220.995,360.282 220.500 C 360.378 220.005,360.378 219.195,360.282 218.700 C 360.187 218.205,360.109 218.610,360.109 219.600 M226.454 220.883 C 226.395 222.060,229.004 225.201,230.038 225.199 C 230.347 225.198,230.052 224.863,229.383 224.455 C 227.996 223.609,226.958 222.188,226.692 220.771 C 226.516 219.837,226.507 219.842,226.454 220.883 M325.340 222.794 C 324.721 223.842,323.947 224.372,321.600 225.354 C 321.270 225.492,321.514 225.506,322.142 225.384 C 323.886 225.047,327.624 221.600,326.245 221.600 C 326.135 221.600,325.728 222.137,325.340 222.794 M236.980 223.232 C 236.833 223.470,236.147 224.010,235.456 224.431 C 234.765 224.852,234.422 225.198,234.694 225.199 C 235.206 225.200,238.013 222.832,237.524 222.812 C 237.372 222.805,237.127 222.995,236.980 223.232 M316.600 224.165 C 317.260 224.732,317.965 225.197,318.167 225.198 C 318.601 225.200,318.596 225.196,316.800 224.037 L 315.400 223.134 316.600 224.165 M360.901 227.400 C 360.905 228.280,360.987 228.593,361.083 228.095 C 361.179 227.598,361.175 226.878,361.075 226.495 C 360.975 226.113,360.896 226.520,360.901 227.400 M361.693 235.200 C 361.693 235.970,361.775 236.285,361.876 235.900 C 361.976 235.515,361.976 234.885,361.876 234.500 C 361.775 234.115,361.693 234.430,361.693 235.200 M362.493 243.200 C 362.493 243.970,362.575 244.285,362.676 243.900 C 362.776 243.515,362.776 242.885,362.676 242.500 C 362.575 242.115,362.493 242.430,362.493 243.200 M148.631 265.700 C 148.530 266.195,148.354 267.770,148.240 269.200 C 148.126 270.630,147.845 273.510,147.615 275.600 C 147.385 277.690,147.019 281.200,146.800 283.400 C 146.333 288.098,145.813 293.080,145.224 298.500 C 144.991 300.645,144.623 304.065,144.408 306.100 C 143.013 319.251,141.926 329.519,141.580 332.800 C 141.359 334.890,141.003 338.220,140.787 340.200 C 140.571 342.180,140.217 345.510,140.000 347.600 C 139.783 349.690,139.422 353.020,139.200 355.000 C 138.977 356.980,138.609 360.490,138.382 362.800 C 137.949 367.192,137.308 370.000,136.737 370.000 C 136.552 370.000,136.400 371.620,136.400 373.600 C 136.400 375.733,136.237 377.200,136.000 377.200 C 135.761 377.200,135.600 378.733,135.600 381.000 C 135.600 383.267,135.439 384.800,135.200 384.800 C 134.963 384.800,134.800 386.259,134.800 388.376 C 134.800 390.343,134.620 392.064,134.400 392.200 C 134.180 392.336,134.000 393.866,134.000 395.600 C 134.000 397.473,133.820 398.864,133.557 399.026 C 132.179 399.878,140.367 399.988,205.505 399.994 L 276.809 400.000 276.608 398.500 C 276.497 397.675,276.041 393.490,275.595 389.200 C 273.883 372.734,273.565 369.696,273.206 366.400 C 273.003 364.530,272.640 361.110,272.400 358.800 C 272.160 356.490,271.797 353.070,271.593 351.200 C 271.389 349.330,271.027 346.000,270.789 343.800 C 270.551 341.600,270.191 338.270,269.989 336.400 C 269.787 334.530,269.437 331.245,269.211 329.100 C 268.349 320.921,267.436 312.360,266.790 306.400 C 266.587 304.530,266.232 301.200,266.000 299.000 C 265.768 296.800,265.411 293.470,265.207 291.600 C 265.002 289.730,264.635 286.310,264.392 284.000 C 263.912 279.452,263.513 275.798,262.763 269.100 L 262.282 264.800 205.549 264.800 L 148.815 264.800 148.631 265.700 M182.700 284.672 C 185.199 286.535,185.200 286.540,185.200 301.945 C 185.200 321.089,185.884 324.223,191.257 329.695 C 200.284 338.890,215.179 337.551,222.243 326.908 C 225.323 322.269,225.339 322.160,225.583 304.000 C 225.799 287.878,225.805 287.793,226.739 286.290 C 229.639 281.626,237.000 283.128,237.813 288.550 C 238.550 293.459,237.794 321.291,236.846 324.200 C 231.950 339.219,220.742 347.653,205.600 347.714 C 190.750 347.775,179.073 339.191,174.530 324.874 L 173.428 321.400 173.280 304.968 C 173.116 286.739,173.132 286.604,175.658 284.686 C 177.829 283.037,180.501 283.032,182.700 284.672 " stroke="none" fill="#fbe34b" fill-rule="evenodd"></path><path id="path4" d="M269.200 129.369 C 265.310 130.026,260.703 131.194,260.220 131.645 C 260.011 131.840,259.607 132.000,259.322 132.000 C 258.557 132.000,252.906 134.664,250.600 136.111 C 237.261 144.484,229.191 156.659,226.811 172.000 C 226.486 174.100,226.384 181.957,226.473 198.200 L 226.600 221.400 227.532 222.706 C 229.991 226.155,234.772 226.138,237.358 222.671 C 238.184 221.564,238.205 221.098,238.461 198.271 C 238.731 174.143,238.826 172.781,240.604 167.400 C 248.841 142.484,281.434 132.845,300.200 149.774 C 301.300 150.766,302.325 151.583,302.478 151.589 C 303.064 151.612,308.116 158.312,309.669 161.125 C 313.912 168.811,314.248 171.443,314.613 199.800 C 314.919 223.525,314.838 222.817,317.422 224.413 C 320.117 226.080,323.758 225.293,325.449 222.679 C 326.500 221.054,327.273 182.544,326.421 174.200 C 325.785 167.959,323.627 160.585,321.125 156.100 C 320.726 155.385,320.019 154.125,319.554 153.300 C 310.193 136.695,288.070 126.181,269.200 129.369 " stroke="none" fill="#fbfbfb" fill-rule="evenodd"></path></g></svg>